<svg xmlns="http://www.w3.org/2000/svg" xmlns:i="&amp;ns_ai;" xmlns:pdf="http://ns.adobe.com/pdf/1.3/" xmlns:stDim="http://ns.adobe.com/xap/1.0/sType/Dimensions#" xmlns:stEvt="http://ns.adobe.com/xap/1.0/sType/ResourceEvent#" xmlns:stRef="http://ns.adobe.com/xap/1.0/sType/ResourceRef#" xmlns:svg="http://www.w3.org/2000/svg" xmlns:x="adobe:ns:meta/" xmlns:xmp="http://ns.adobe.com/xap/1.0/" xmlns:xmpG="http://ns.adobe.com/xap/1.0/g/" xmlns:xmpGImg="http://ns.adobe.com/xap/1.0/g/img/" xmlns:xmpMM="http://ns.adobe.com/xap/1.0/mm/" xmlns:xmpTPg="http://ns.adobe.com/xap/1.0/t/pg/" id="svg596" width="433.998" height="226.155" x="0" y="0" enable-background="new 0 0 782.998 447.155" version="1.1" viewBox="0 0 433.998 226.155" i:pageBounds="-139.499 475.5776 643.499 28.4229" i:rulerOrigin="139.499 -28.4229" i:viewOrigin="-139.499 475.5776" xml:space="preserve"><metadata id="metadata2"><?xpacket begin="﻿" id="W5M0MpCehiHzreSzNTczkc9d"?><x:xmpmeta x:xmptk="Adobe XMP Core 5.3-c011 66.145661, 2012/02/06-14:56:27"/><?xpacket end="w"?></metadata><switch id="switch594" transform="translate(-178.41248,-123.69336)"><g id="g592" i:extraneous="self"><g id="Layer_1" i:dimmedPercent="50" i:layer="yes" i:rgbTrio="#4F008000FFFF"><linearGradient id="SVGID_1_" x1="226.068" x2="275.918" y1="279.363" y2="379.062" gradientUnits="userSpaceOnUse"><stop offset="0" style="stop-color:#6cc20d" id="stop4"/><stop offset="1" style="stop-color:#c0dc31" id="stop6"/></linearGradient><path id="path9" fill="url(#SVGID_1_)" d="m 218.166,236.244 c 0.333,2.668 0.667,53.334 4,54.334 -0.667,35.333 2,52.001 3.333,47.667 1.333,-4.334 6.333,-109.333 6.333,-109.333" style="fill:url(#SVGID_1_)"/><linearGradient id="SVGID_2_" x1="205.882" x2="274.262" y1="288.589" y2="239.7" gradientUnits="userSpaceOnUse"><stop offset="0" style="stop-color:#078167" id="stop11"/><stop offset="1" style="stop-color:#0e6847" id="stop13"/></linearGradient><path id="path16" fill="url(#SVGID_2_)" d="m 220.499,230.912 c 0,0 0.333,20.333 1.333,23 1,32.333 0.667,30.999 4,27.666 -2,44.667 -1.333,53.334 0.333,50.667 1.666,-2.667 7,-46 7,-46 0,0 0.333,4.333 2.333,-1.667 2,-6 4.333,-23.333 4.333,-23.333 0,0 4.333,8.333 7.667,-41.501 2.236,-33.424 -11.667,-6.166 -11.667,-6.166" style="fill:url(#SVGID_2_)"/><linearGradient id="SVGID_3_" x1="234.415" x2="233.347" y1="289.735" y2="207.575" gradientUnits="userSpaceOnUse"><stop offset="0" style="stop-color:#d3b215" id="stop18"/><stop offset="1" style="stop-color:#e6d511" id="stop20"/></linearGradient><path id="path23" fill="url(#SVGID_3_)" d="m 222.31,225.078 c 0,0 -2.244,26.5 2.244,24 -1.122,15 0.374,30 3.74,24 3.366,-6 -0.374,12 2.992,8 3.366,-4 6.358,-25 6.358,-25 0,0 3.74,4 5.236,-11 0.748,2 2.244,-0.25 2.618,-26" style="fill:url(#SVGID_3_)"/><linearGradient id="SVGID_4_" x1="219.523" x2="237.25" y1="244.226" y2="273.57" gradientUnits="userSpaceOnUse"><stop offset="0" style="stop-color:#d31b22" id="stop25"/><stop offset="1" style="stop-color:#ec6912" id="stop27"/></linearGradient><path id="path30" fill="url(#SVGID_4_)" d="m 225.333,240.912 c 0,0 -0.167,33.166 1.667,33.166 -2.167,2.834 -3.5,-14.834 -3.5,-33 0,-6.666 2.667,-6.334 2.833,-4" style="fill:url(#SVGID_4_)"/><g id="g39" opacity=".58"><linearGradient id="SVGID_5_" x1="321.282" x2="298.033" y1="164.454" y2="169.954" gradientUnits="userSpaceOnUse"><stop offset="0" style="stop-color:#fff" id="stop32"/><stop offset="1" style="stop-color:#ee3f3e" id="stop34"/></linearGradient><path id="path37" fill="url(#SVGID_5_)" d="m 306.874,169.453 c 0,0 4.25,1.875 -1,8.875 7.25,-0.75 13.875,-11.875 8.5,-22.125 -4.5,0.125 -11.75,2.125 -10.625,7.625" style="fill:url(#SVGID_5_)"/></g><linearGradient id="SVGID_6_" x1="245.403" x2="270.736" y1="184.642" y2="207.642" gradientUnits="userSpaceOnUse"><stop offset="0" style="stop-color:#6cc20d" id="stop41"/><stop offset="1" style="stop-color:#c0dc31" id="stop43"/></linearGradient><path id="path46" fill="url(#SVGID_6_)" d="m 295.833,170.911 c 0,0 -9.333,42 -51.333,53 -14.667,4 -24.333,2.999 -20,-3.334 4.333,-6.333 40,-62.667 45.667,-63 5.667,-0.333 12.667,2.333 12.667,2.333" style="fill:url(#SVGID_6_)"/><linearGradient id="SVGID_7_" x1="243.231" x2="271.908" y1="185.697" y2="238.323" gradientUnits="userSpaceOnUse"><stop offset="0" style="stop-color:#1a293d" id="stop48"/><stop offset="1" style="stop-color:#0e6847" id="stop50"/></linearGradient><path id="path53" fill="url(#SVGID_7_)" d="m 270.999,166.578 c 0,0 13,8.5 -5,32.5 -18,24 -39.5,34 -41,24.5" opacity=".19" i:knockout="Off" style="fill:url(#SVGID_7_)"/><linearGradient id="SVGID_8_" x1="227.003" x2="259.052" y1="225.002" y2="283.818" gradientUnits="userSpaceOnUse"><stop offset="0" style="stop-color:#1a293d" id="stop55"/><stop offset="1" style="stop-color:#0e6847" id="stop57"/></linearGradient><path id="path60" fill="url(#SVGID_8_)" d="m 221.749,244.328 c 0,0 1.5,-6.25 5.5,-3 4,3.25 2,22.75 2,22.75 0,0 1.25,-21.5 4,-25.5 2.75,-4 4.25,1.75 4.25,10.5 0,8.75 0.75,3.5 1.5,-4.5 0.75,-8 2,-12.5 3,-9.25 1,3.25 2,2.25 2.5,-2 0.5,-4.25 0.5,-10.25 0.5,-10.25 0,0 -8.75,-3.75 -5.5,-8.5 -11.75,4 -14.5,9 -14.5,9 0,0 -5,14.5 -3.25,20.75 z" opacity=".21" i:knockout="Off" style="fill:url(#SVGID_8_)"/><linearGradient id="SVGID_9_" x1="223.234" x2="231.51" y1="223.544" y2="238.732" gradientUnits="userSpaceOnUse"><stop offset="0" style="stop-color:#1a293d" id="stop62"/><stop offset="1" style="stop-color:#0e6847" id="stop64"/></linearGradient><path id="path67" fill="url(#SVGID_9_)" d="m 233.597,219.531 c 0,0 -8.741,15.539 -8.88,13.042 -0.139,-2.497 -3.469,1.942 -5.411,3.469 -1.942,1.527 -2.636,-1.11 -1.665,-3.053 0.971,-1.943 11.1,-13.597 11.1,-13.597" style="fill:url(#SVGID_9_)"/><linearGradient id="SVGID_10_" x1="239.414" x2="237.006" y1="229.84" y2="170.559" gradientUnits="userSpaceOnUse"><stop offset="0" style="stop-color:#1a293d" id="stop69"/><stop offset="1" style="stop-color:#0e6847" id="stop71"/></linearGradient><path id="path74" fill="url(#SVGID_10_)" d="m 255.999,218.578 c -28.5,7.834 -67.667,24.5 -67.667,24.5 l 1.167,11 c 10.667,-9.666 94.167,-34.834 97.167,-35.834 2.596,-0.865 3.69,-2.109 3.723,-4.263 -0.418,-2.232 -1.068,-4.465 -1.554,-6.698 -5.712,2.912 -15.728,6.592 -32.836,11.295 z" style="fill:url(#SVGID_10_)"/><linearGradient id="SVGID_11_" x1="254.825" x2="259.059" y1="230.697" y2="209.245" gradientUnits="userSpaceOnUse"><stop offset="0" style="stop-color:#d31b22" id="stop76"/><stop offset="1" style="stop-color:#ec6912" id="stop78"/></linearGradient><path id="path81" fill="url(#SVGID_11_)" d="m 227.354,229.381 c 0,0 53.695,-17.066 57.025,-18.593 3.33,-1.525 3.885,-0.971 3.191,-0.693 -0.694,0.278 -57.858,20.258 -61.604,20.396" style="fill:url(#SVGID_11_)"/><linearGradient id="SVGID_12_" x1="209.184" x2="231.933" y1="188.704" y2="230.453" gradientUnits="userSpaceOnUse"><stop offset="0" style="stop-color:#1a293d" id="stop83"/><stop offset="1" style="stop-color:#0e6847" id="stop85"/></linearGradient><path id="path88" fill="url(#SVGID_12_)" d="m 221.499,178.828 c 0,0 -4.5,3.5 -6.25,16.5 -7,10.75 -13,24.75 -5.25,21.5 7.75,-3.25 14.25,-25.25 14.25,-25.25" style="fill:url(#SVGID_12_)"/><linearGradient id="SVGID_13_" x1="192.635" x2="244.384" y1="237.067" y2="200.068" gradientUnits="userSpaceOnUse"><stop offset="0" style="stop-color:#078167" id="stop90"/><stop offset="1" style="stop-color:#0e6847" id="stop92"/></linearGradient><path id="path95" fill="url(#SVGID_13_)" d="m 222.249,191.578 c 0,0 -16.5,16.5 -11.75,21.5 -8.5,11.75 -14,21.75 -9.5,21 -5.5,17.75 -6,25.5 -0.25,21.5 5.75,-4 19.25,-16 26,-32.75 4.25,-1.25 13.25,-8.25 17,-21" style="fill:url(#SVGID_13_)"/><linearGradient id="SVGID_14_" x1="266.824" x2="274.408" y1="136.044" y2="167.545" gradientUnits="userSpaceOnUse"><stop offset="0" style="stop-color:#6eb24f" id="stop97"/><stop offset="1" style="stop-color:#03b9ce" id="stop99"/></linearGradient><path id="path102" fill="url(#SVGID_14_)" d="m 296.833,135.578 c 0,0 -22,-6.667 -38,9.333 -10.667,2.333 -17.667,9.667 -17.667,9.667 l 26.333,9 c 0,0 2.667,-7 10.333,0" style="fill:url(#SVGID_14_)"/><g id="g106" i:knockout="Off"><path id="path104" fill="#1a293d" d="m 410.802,232.757 c -1.148,0.32 -2.465,0.48 -3.949,0.48 -2.16,0 -3.691,-0.59 -4.592,-1.77 -0.901,-1.18 -1.35,-3.145 -1.35,-5.898 v -13.957 h 12.625 v -6.625 h -12.625 v -10.375 l -8.25,1.375 v 29.701 c 0,2.273 0.203,4.295 0.609,6.064 0.406,1.769 1.107,3.277 2.104,4.523 0.994,1.246 2.34,2.197 4.035,2.854 1.695,0.654 3.811,0.982 6.344,0.982 2.08,0 3.889,-0.211 5.428,-0.631 1.537,-0.422 2.781,-0.832 3.73,-1.232 l -1.375,-6.387 c -0.676,0.277 -1.588,0.576 -2.734,0.896 z m -95.091,-33.066 c 0.227,-0.932 0.611,-1.723 1.156,-2.373 0.545,-0.648 1.271,-1.158 2.18,-1.527 0.906,-0.367 2.018,-0.553 3.334,-0.553 1.18,0 2.279,0.117 3.301,0.348 1.021,0.232 1.918,0.533 2.689,0.902 l 1.5,-6.625 c -0.725,-0.262 -1.811,-0.555 -3.26,-0.883 -1.449,-0.328 -3.125,-0.492 -5.025,-0.492 -4.844,0 -8.467,1.258 -10.865,3.77 -2.4,2.514 -3.6,5.977 -3.6,10.391 v 36.714 h 8.25 v -27.75 h 12.875 v -6.625 h -12.875 v -2.275 c 0,-1.082 0.113,-2.09 0.34,-3.022 z m 130.075,9.495 c -1.557,-1.553 -3.439,-2.744 -5.65,-3.576 -2.211,-0.83 -4.715,-1.246 -7.512,-1.246 -2.707,0 -5.279,0.201 -7.715,0.604 -2.438,0.402 -4.49,0.826 -6.158,1.271 v 45.25 h 8.25 v -13.25 c 0.898,0.475 2.047,0.906 3.441,1.293 1.394,0.387 2.926,0.582 4.592,0.582 2.473,0 4.689,-0.438 6.646,-1.311 1.957,-0.875 3.59,-2.1 4.895,-3.674 1.305,-1.574 2.307,-3.455 3.004,-5.643 0.697,-2.186 1.047,-4.59 1.047,-7.214 0,-2.754 -0.418,-5.236 -1.252,-7.445 -0.836,-2.208 -2.031,-4.089 -3.588,-5.641 z m -5.594,21.114 c -1.371,1.959 -3.543,2.938 -6.512,2.938 -1.35,0 -2.621,-0.197 -3.813,-0.594 -1.191,-0.395 -2.148,-0.822 -2.867,-1.281 v -19.625 c 0.809,-0.207 1.631,-0.344 2.463,-0.406 0.832,-0.062 1.631,-0.094 2.396,-0.094 3.643,0 6.285,0.98 7.928,2.938 1.641,1.959 2.463,4.701 2.463,8.227 10e-4,3.307 -0.687,5.94 -2.058,7.897 z m -85.656,-22.321 c -1.105,-1.18 -2.584,-2.1 -4.434,-2.756 -1.852,-0.656 -4.131,-0.984 -6.838,-0.984 -2.258,0 -4.379,0.182 -6.363,0.543 -1.986,0.361 -3.498,0.723 -4.535,1.082 l 1,6.375 c 0.996,-0.332 2.287,-0.625 3.873,-0.875 1.586,-0.25 3.33,-0.375 5.232,-0.375 1.402,0 2.568,0.176 3.498,0.525 0.928,0.35 1.676,0.842 2.242,1.475 0.566,0.633 0.963,1.365 1.189,2.195 0.226,0.83 0.34,1.703 0.34,2.619 v 1.311 c -1.131,-0.271 -2.193,-0.465 -3.188,-0.578 -0.996,-0.113 -1.945,-0.172 -2.848,-0.172 -1.945,0 -3.811,0.186 -5.596,0.557 -1.785,0.371 -3.357,0.982 -4.713,1.834 -1.356,0.852 -2.43,1.955 -3.221,3.309 -0.791,1.355 -1.186,3.013 -1.186,4.978 0,2.055 0.35,3.779 1.049,5.178 0.699,1.399 1.668,2.533 2.91,3.406 1.24,0.873 2.74,1.506 4.5,1.898 1.758,0.393 3.699,0.59 5.82,0.59 3.203,0 6.078,-0.186 8.627,-0.555 2.549,-0.369 4.455,-0.684 5.719,-0.945 V 217.82 c 0,-2.012 -0.238,-3.859 -0.711,-5.543 -0.471,-1.685 -1.26,-3.119 -2.366,-4.298 z m -4.795,25.509 c -1.307,0.25 -3.221,0.375 -5.744,0.375 -2.072,0 -3.717,-0.359 -4.932,-1.08 -1.217,-0.719 -1.824,-2.018 -1.824,-3.893 0,-0.959 0.225,-1.756 0.676,-2.389 0.449,-0.633 1.047,-1.123 1.791,-1.473 0.742,-0.348 1.576,-0.587 2.5,-0.718 0.922,-0.131 1.834,-0.197 2.736,-0.197 1.035,0 1.98,0.07 2.836,0.209 0.856,0.139 1.51,0.277 1.961,0.416 z m 35.903,-10.068 c -0.879,-0.852 -1.996,-1.617 -3.35,-2.295 -1.355,-0.678 -3.002,-1.367 -4.941,-2.066 -1.174,-0.393 -2.166,-0.775 -2.979,-1.146 -0.813,-0.371 -1.467,-0.742 -1.963,-1.113 -0.496,-0.371 -0.846,-0.773 -1.049,-1.211 -0.203,-0.438 -0.305,-0.939 -0.305,-1.508 0,-1.135 0.516,-1.975 1.549,-2.521 1.031,-0.547 2.379,-0.82 4.041,-0.82 1.84,0 3.457,0.156 4.85,0.469 1.391,0.313 2.537,0.656 3.436,1.031 l 1.5,-6.375 c -0.945,-0.346 -2.363,-0.703 -4.254,-1.072 -1.891,-0.367 -3.873,-0.553 -5.943,-0.553 -4.098,0 -7.338,0.908 -9.725,2.723 -2.387,1.815 -3.578,4.295 -3.578,7.441 0,1.617 0.258,2.984 0.775,4.098 0.516,1.115 1.225,2.066 2.125,2.854 0.898,0.787 1.967,1.475 3.205,2.064 1.236,0.59 2.596,1.148 4.08,1.671 2.43,0.867 4.172,1.67 5.229,2.408 1.057,0.738 1.586,1.67 1.586,2.797 0,1.215 -0.496,2.072 -1.488,2.57 -0.992,0.5 -2.572,0.748 -4.736,0.748 -2.166,0 -4.096,-0.215 -5.787,-0.645 -1.691,-0.43 -3.146,-0.883 -4.363,-1.355 l -1.375,6.625 c 0.766,0.313 2.098,0.723 3.994,1.234 1.895,0.51 4.4,0.766 7.516,0.766 4.648,0 8.227,-0.842 10.732,-2.523 2.504,-1.684 3.758,-4.164 3.758,-7.443 0,-1.529 -0.203,-2.84 -0.609,-3.934 -0.406,-1.094 -1.052,-2.068 -1.931,-2.919 z m 115.401,-14.272 c -1.49,-1.57 -3.285,-2.781 -5.385,-3.633 -2.1,-0.852 -4.391,-1.277 -6.873,-1.277 -2.484,0 -4.764,0.426 -6.842,1.277 -2.078,0.851 -3.873,2.063 -5.385,3.633 -1.512,1.57 -2.686,3.459 -3.521,5.662 -0.835,2.203 -1.252,4.658 -1.252,7.361 0,2.707 0.416,5.171 1.252,7.398 0.836,2.227 1.998,4.123 3.488,5.693 1.49,1.57 3.273,2.793 5.352,3.666 2.076,0.871 4.379,1.309 6.908,1.309 2.527,0 4.842,-0.438 6.941,-1.309 2.1,-0.873 3.895,-2.096 5.385,-3.666 1.49,-1.57 2.643,-3.467 3.455,-5.693 0.812,-2.226 1.219,-4.691 1.219,-7.398 0,-2.703 -0.418,-5.158 -1.254,-7.361 -0.836,-2.203 -1.998,-4.091 -3.488,-5.662 z m -5.908,21.205 c -1.518,2.008 -3.635,3.01 -6.35,3.01 -2.717,0 -4.834,-1.002 -6.35,-3.01 -1.518,-2.008 -2.275,-4.734 -2.275,-8.181 0,-3.402 0.758,-6.096 2.275,-8.08 1.516,-1.984 3.633,-2.979 6.35,-2.979 2.715,0 4.832,0.994 6.35,2.979 1.516,1.984 2.275,4.678 2.275,8.08 0,3.447 -0.76,6.173 -2.275,8.181 z m 63.507,-40.24 c -1.404,0 -2.605,0.438 -3.602,1.309 -0.996,0.873 -1.494,2.072 -1.494,3.6 0,1.484 0.498,2.662 1.494,3.533 0.996,0.873 2.197,1.309 3.602,1.309 1.359,0 2.537,-0.436 3.533,-1.309 0.996,-0.871 1.496,-2.049 1.496,-3.533 0,-1.527 -0.5,-2.727 -1.496,-3.6 -0.996,-0.871 -2.174,-1.309 -3.533,-1.309 z m 42.709,24.842 c -0.697,-2.207 -1.699,-4.098 -3.004,-5.672 -1.305,-1.574 -2.938,-2.787 -4.895,-3.641 -1.957,-0.852 -4.174,-1.279 -6.646,-1.279 -1.666,0 -3.186,0.195 -4.557,0.582 -1.373,0.389 -2.531,0.82 -3.477,1.293 v -17.75 l -8.25,1.375 v 48.5 c 1.623,0.475 3.664,0.906 6.123,1.293 2.459,0.387 5.043,0.582 7.75,0.582 2.797,0 5.301,-0.416 7.512,-1.246 2.211,-0.83 4.094,-2.033 5.65,-3.607 1.556,-1.574 2.752,-3.465 3.588,-5.672 0.834,-2.207 1.252,-4.689 1.252,-7.445 0,-2.666 -0.349,-5.104 -1.046,-7.313 z m -9.893,15.429 c -1.711,1.986 -4.072,2.979 -7.084,2.979 -1.305,0 -2.42,-0.051 -3.342,-0.156 -0.922,-0.104 -1.676,-0.219 -2.26,-0.344 v -19.75 c 0.719,-0.473 1.676,-0.904 2.867,-1.293 1.191,-0.387 2.463,-0.582 3.813,-0.582 2.969,0 5.141,0.982 6.512,2.945 1.371,1.965 2.059,4.627 2.059,7.986 -10e-4,3.493 -0.856,6.231 -2.565,8.215 z m -36.912,8.979 h 8.25 v -34.375 h -8.25 z m -8.323,-7.602 c -0.402,-0.457 -0.684,-1.014 -0.84,-1.668 -0.156,-0.654 -0.234,-1.461 -0.234,-2.422 v -39.183 l -8.25,1.375 v 39.392 c 0,1.703 0.191,3.219 0.576,4.549 0.385,1.332 1.053,2.443 2.004,3.338 0.951,0.895 2.23,1.58 3.84,2.061 1.607,0.479 3.635,0.74 6.08,0.785 l 1.125,-6.625 c -1.076,-0.129 -1.961,-0.314 -2.654,-0.555 -0.696,-0.24 -1.245,-0.59 -1.647,-1.047 z m -80.761,0 c -0.402,-0.457 -0.684,-1.014 -0.84,-1.668 -0.156,-0.654 -0.234,-1.461 -0.234,-2.422 v -39.183 l -8.25,1.375 v 39.392 c 0,1.703 0.191,3.219 0.576,4.549 0.385,1.332 1.053,2.443 2.004,3.338 0.951,0.895 2.23,1.58 3.84,2.061 1.607,0.479 3.635,0.74 6.08,0.785 l 1.125,-6.625 c -1.076,-0.129 -1.961,-0.314 -2.654,-0.555 -0.696,-0.24 -1.245,-0.59 -1.647,-1.047 z m 63.738,0.996 c -1.148,0.32 -2.465,0.48 -3.949,0.48 -2.16,0 -3.691,-0.59 -4.592,-1.77 -0.901,-1.18 -1.35,-3.145 -1.35,-5.898 v -13.957 h 12.625 v -6.625 h -12.625 v -10.375 l -8.25,1.375 v 29.701 c 0,2.273 0.203,4.295 0.609,6.064 0.406,1.769 1.107,3.277 2.104,4.523 0.994,1.246 2.34,2.197 4.035,2.854 1.695,0.654 3.811,0.982 6.344,0.982 2.08,0 3.889,-0.211 5.428,-0.631 1.537,-0.422 2.781,-0.832 3.73,-1.232 l -1.375,-6.387 c -0.675,0.277 -1.587,0.576 -2.734,0.896 z" i:knockout="Off"/></g><linearGradient id="SVGID_15_" x1="296.601" x2="304.185" y1="128.875" y2="160.377" gradientUnits="userSpaceOnUse"><stop offset="0" style="stop-color:#6eb24f" id="stop108"/><stop offset="1" style="stop-color:#03b9ce" id="stop110"/></linearGradient><path id="path113" fill="url(#SVGID_15_)" d="m 290.833,145.911 c 0,0 -9,-9.667 -1.667,-11 7.333,-1.333 23.667,3 25.667,18 -3,2.333 -8,1.667 -8,1.667" style="fill:url(#SVGID_15_)"/><linearGradient id="SVGID_16_" x1="215.568" x2="227.279" y1="210.935" y2="232.427" gradientUnits="userSpaceOnUse"><stop offset="0" style="stop-color:#1a293d" id="stop115"/><stop offset="1" style="stop-color:#0e6847" id="stop117"/></linearGradient><path id="path120" fill="url(#SVGID_16_)" d="m 230.666,201.078 c 0,0 -17.167,23 -27.5,31.334 5,-2.5 15.667,-14.167 30.5,-32.5" style="fill:url(#SVGID_16_)"/><linearGradient id="SVGID_17_" x1="219.656" x2="230.739" y1="211.903" y2="232.242" gradientUnits="userSpaceOnUse"><stop offset="0" style="stop-color:#1a293d" id="stop122"/><stop offset="1" style="stop-color:#0e6847" id="stop124"/></linearGradient><path id="path127" fill="url(#SVGID_17_)" d="m 235.333,202.078 c 0,0 -16.167,22.5 -27.833,30.334 9.167,-4.167 22.167,-20.5 29.5,-31.5" style="fill:url(#SVGID_17_)"/><linearGradient id="SVGID_18_" x1="229.624" x2="238.125" y1="207.732" y2="223.334" gradientUnits="userSpaceOnUse"><stop offset="0" style="stop-color:#1a293d" id="stop129"/><stop offset="1" style="stop-color:#0e6847" id="stop131"/></linearGradient><path id="path134" fill="url(#SVGID_18_)" d="m 237.833,202.245 c 0,0 -7.5,14.666 -16.167,20.333 9.667,-3.5 17.833,-19.667 19.833,-22.5" style="fill:url(#SVGID_18_)"/><linearGradient id="SVGID_19_" x1="234.57" x2="243.137" y1="206.802" y2="222.523" gradientUnits="userSpaceOnUse"><stop offset="0" style="stop-color:#1a293d" id="stop136"/><stop offset="1" style="stop-color:#0e6847" id="stop138"/></linearGradient><path id="path141" fill="url(#SVGID_19_)" d="m 241.666,202.078 c 0,0 -5.667,11.334 -12,18.167 6.667,-4.833 12.333,-14.667 13.833,-19.5" style="fill:url(#SVGID_19_)"/><linearGradient id="SVGID_20_" x1="249.796" x2="254.462" y1="206.327" y2="180.662" gradientUnits="userSpaceOnUse"><stop offset="0" style="stop-color:#03b9ce" id="stop143"/><stop offset="1" style="stop-color:#28d" id="stop145"/></linearGradient><path id="path148" fill="url(#SVGID_20_)" d="m 246.749,198.328 c 0,0 -5.5,13.75 -17,23.5 16.25,-7.75 47.25,-32.25 42.5,-53.5 -6.25,-7.5 -14.75,-1.5 -14.75,-1.5" style="fill:url(#SVGID_20_)"/><linearGradient id="SVGID_21_" x1="246.357" x2="249.358" y1="185.773" y2="213.774" gradientUnits="userSpaceOnUse"><stop offset="0" style="stop-color:#4cc20d" id="stop150"/><stop offset="1" style="stop-color:#c0dc31" id="stop152"/></linearGradient><path id="path155" fill="url(#SVGID_21_)" d="m 222.999,187.828 c 0,0 -2.75,18.75 9.25,14.25 -0.5,3.25 19,4.75 26.25,-11.75 1.25,2.75 12.5,-4.75 10.75,-19.25 -1.75,-14.5 -32.25,1 -32.25,1" style="fill:url(#SVGID_21_)"/><linearGradient id="SVGID_22_" x1="251.052" x2="251.552" y1="192.043" y2="181.793" gradientUnits="userSpaceOnUse"><stop offset="0" style="stop-color:#28d" id="stop157"/><stop offset="1" style="stop-color:#6cc20d" id="stop159"/></linearGradient><path id="path162" fill="url(#SVGID_22_)" d="m 246.249,178.828 c 0,0 2.75,13.75 7.5,13.5 4.75,-0.25 2.75,-17.75 2.75,-17.75 h -6.25" style="fill:url(#SVGID_22_)"/><linearGradient id="SVGID_23_" x1="258.389" x2="270.638" y1="166.133" y2="190.631" gradientUnits="userSpaceOnUse"><stop offset="0" style="stop-color:#6cc20d" id="stop164"/><stop offset="1" style="stop-color:#c0dc31" id="stop166"/></linearGradient><path id="path169" fill="url(#SVGID_23_)" d="m 248.499,169.828 c 0,0 -0.5,8.5 5,10.75 5.5,2.25 10,-4 10,-4 0,0 7.75,0 8.75,-8.5 0.5,-7.75 -12.75,-15.25 -23.5,-8.75" style="fill:url(#SVGID_23_)"/><linearGradient id="SVGID_24_" x1="279.106" x2="304.44" y1="147.523" y2="170.523" gradientUnits="userSpaceOnUse"><stop offset="0" style="stop-color:#6cc20d" id="stop171"/><stop offset="1" style="stop-color:#c0dc31" id="stop173"/></linearGradient><path id="path176" fill="url(#SVGID_24_)" d="m 300.833,158.578 c 0,0 0.667,12.334 -8.667,15.667 -9.334,3.333 -19.333,-7.667 -19.333,-19.333 0,-11.666 23.667,-20.333 37.333,-1 0,0 1,2.667 -2.667,2.667" style="fill:url(#SVGID_24_)"/><linearGradient id="SVGID_25_" x1="244.077" x2="242.577" y1="182.678" y2="154.179" gradientUnits="userSpaceOnUse"><stop offset="0" style="stop-color:#6cc20d" id="stop178"/><stop offset="1" style="stop-color:#009a30" id="stop180"/></linearGradient><path id="path183" fill="url(#SVGID_25_)" d="m 272.249,165.328 c 0,0 -3,-11.25 -16,-8.75 -2.25,-5.5 -24,-6.25 -34,14.5 -0.5,2.75 -0.5,2.75 -0.5,2.75 0,0 -6,8.25 -6.25,18.5 1.75,-8.25 6.25,-12.25 6.25,-12.25 0,0 -3.25,9.75 2.25,17.25 1.5,-9.25 5,-13.25 5,-13.25 0,0 -1.75,13 2,13.25 3.75,0.25 7,-8.25 7,-8.25 0,0 4.5,8 7.5,4.75 3,-3.25 2.5,-13.75 2.5,-13.75 0,0 2.75,-2.5 1.75,-6.25 3.75,-1.25 6,-8.5 5.25,-14 1.25,-3.25 12.75,-2.75 17.25,5.5 z" style="fill:url(#SVGID_25_)"/><g id="g192" opacity=".41"><linearGradient id="SVGID_26_" x1="215.134" x2="220.588" y1="202.548" y2="213.457" gradientUnits="userSpaceOnUse"><stop offset="0" style="stop-color:#6cc20d" id="stop185"/><stop offset="1" style="stop-color:#c0dc31" id="stop187"/></linearGradient><path id="path190" fill="url(#SVGID_26_)" d="m 219.999,194.912 c 0,0 -6.666,6.499 -5.333,7.666 1.333,1.167 7.167,-4.333 7.167,-4.333 0,0 -11.167,9 -11.167,13 -1.333,-1.667 0.333,-8 9.333,-16.333 z" style="fill:url(#SVGID_26_)"/></g><g id="g201" opacity=".41"><linearGradient id="SVGID_27_" x1="212.226" x2="218.147" y1="213.198" y2="225.041" gradientUnits="userSpaceOnUse"><stop offset="0" style="stop-color:#6cc20d" id="stop194"/><stop offset="1" style="stop-color:#c0dc31" id="stop196"/></linearGradient><path id="path199" fill="url(#SVGID_27_)" d="m 220.833,203.245 c 0,0 -15,15.833 -16.667,21" style="fill:url(#SVGID_27_)"/></g><g id="g210" opacity=".41"><linearGradient id="SVGID_28_" x1="221.399" x2="227.165" y1="215.378" y2="226.91" gradientUnits="userSpaceOnUse"><stop offset="0" style="stop-color:#6cc20d" id="stop203"/><stop offset="1" style="stop-color:#c0dc31" id="stop205"/></linearGradient><path id="path208" fill="url(#SVGID_28_)" d="m 230.999,205.078 c -0.167,1 -11,17.5 -18.667,21.666" style="fill:url(#SVGID_28_)"/></g><linearGradient id="SVGID_29_" x1="228.404" x2="232.26" y1="213.221" y2="220.934" gradientUnits="userSpaceOnUse"><stop offset="0" style="stop-color:#6cc20d" id="stop212"/><stop offset="1" style="stop-color:#c0dc31" id="stop214"/></linearGradient><path id="path217" fill="url(#SVGID_29_)" d="m 233.666,206.912 c 0,0 -7.334,11.666 -10.167,13.332" style="fill:url(#SVGID_29_)"/><linearGradient id="SVGID_30_" x1="232.614" x2="235.535" y1="213.975" y2="219.817" gradientUnits="userSpaceOnUse"><stop offset="0" style="stop-color:#6cc20d" id="stop219"/><stop offset="1" style="stop-color:#c0dc31" id="stop221"/></linearGradient><path id="path224" fill="url(#SVGID_30_)" d="m 237.166,208.912 c 0,0 -6.667,9.5 -8.833,10.666" style="fill:url(#SVGID_30_)"/><linearGradient id="SVGID_31_" x1="202.031" x2="217.698" y1="222.133" y2="252.467" gradientUnits="userSpaceOnUse"><stop offset="0" style="stop-color:#6cc20d" id="stop226"/><stop offset="1" style="stop-color:#00a0c6" id="stop228"/></linearGradient><path id="path231" fill="url(#SVGID_31_)" d="m 202.833,236.578 c 0,0 -8.167,18.5 -3.667,17.334 4.5,-1.167 21.833,-22.667 24.5,-29 -12.333,15.833 -21.833,25.832 -22.833,26.166 -1,0.334 14.667,-24.166 14.667,-24.166 l -15.333,22.666" style="fill:url(#SVGID_31_)"/><linearGradient id="SVGID_32_" x1="230.849" x2="247.482" y1="167.826" y2="198.35" gradientUnits="userSpaceOnUse"><stop offset="0" style="stop-color:#1a293d" id="stop233"/><stop offset="1" style="stop-color:#0e6847" id="stop235"/></linearGradient><path id="path238" fill="url(#SVGID_32_)" d="m 230.499,165.703 c -2.148,4.092 -6.971,6.758 -8.653,7.592 -0.096,0.529 -0.097,0.533 -0.097,0.533 0,0 -0.194,0.269 -0.503,0.749 2.624,-0.564 5.352,-2.57 8.003,-5.124 -0.625,5 2,10.5 4.875,9.75 -2.375,0.125 -5.125,-5 -3.625,-13.5 z m 6.125,7.375 c 0,2.625 -1.5,5.375 -1.5,5.375 0,0 1.375,-0.5 2,-2.625 4.625,6.375 9.125,6.25 12.25,1.625 -4.625,6.5 -11.5,-0.375 -12.75,-4.375 z" opacity=".19" i:knockout="Off" style="fill:url(#SVGID_32_)"/><linearGradient id="SVGID_33_" x1="220.706" x2="233.661" y1="178.492" y2="202.267" gradientUnits="userSpaceOnUse"><stop offset="0" style="stop-color:#1a293d" id="stop240"/><stop offset="1" style="stop-color:#0e6847" id="stop242"/></linearGradient><path id="path245" fill="url(#SVGID_33_)" d="m 220.374,186.953 c 0,0 -0.125,-7.75 5.125,-12.875 -3.5,5.25 -5.75,13.5 -3.5,20" opacity=".19" i:knockout="Off" style="fill:url(#SVGID_33_)"/><linearGradient id="SVGID_34_" x1="226.996" x2="240.267" y1="183.106" y2="207.46" gradientUnits="userSpaceOnUse"><stop offset="0" style="stop-color:#1a293d" id="stop247"/><stop offset="1" style="stop-color:#0e6847" id="stop249"/></linearGradient><path id="path252" fill="url(#SVGID_34_)" d="m 229.624,179.828 c 0,0 -2,16.5 2.125,17.375 -4.125,0 -4.125,-9.375 -2.125,-17.375 z" opacity=".19" i:knockout="Off" style="fill:url(#SVGID_34_)"/><linearGradient id="SVGID_35_" x1="236.226" x2="249.486" y1="182.536" y2="206.87" gradientUnits="userSpaceOnUse"><stop offset="0" style="stop-color:#1a293d" id="stop254"/><stop offset="1" style="stop-color:#0e6847" id="stop256"/></linearGradient><path id="path259" fill="url(#SVGID_35_)" d="m 237.124,180.203 c 0,0 1.25,14 7.375,14.5 -5.625,-0.25 -8.5,-6.75 -7.375,-14.5 z" opacity=".19" i:knockout="Off" style="fill:url(#SVGID_35_)"/><linearGradient id="SVGID_36_" x1="261.484" x2="266.364" y1="173.987" y2="182.943" gradientUnits="userSpaceOnUse"><stop offset="0" style="stop-color:#1a293d" id="stop261"/><stop offset="1" style="stop-color:#0e6847" id="stop263"/></linearGradient><path id="path266" fill="url(#SVGID_36_)" d="m 251.124,178.953 c 0,0 6,5.75 12.25,-3.125 2.5,1.625 7.5,-2.375 8.5,-6.75 -1.375,6.125 -3.25,8.125 -7.625,8.125 -3,4.5 -9.125,6.5 -13.125,1.75 z" opacity=".19" i:knockout="Off" style="fill:url(#SVGID_36_)"/><linearGradient id="SVGID_37_" x1="240.811" x2="244.781" y1="199.024" y2="206.309" gradientUnits="userSpaceOnUse"><stop offset="0" style="stop-color:#1a293d" id="stop268"/><stop offset="1" style="stop-color:#0e6847" id="stop270"/></linearGradient><path id="path273" fill="url(#SVGID_37_)" d="m 234.249,203.453 c 0,0 8.5,3.25 13.25,-8.625 -2.5,7.75 -6.375,11.25 -13.25,8.625 z" opacity=".19" i:knockout="Off" style="fill:url(#SVGID_37_)"/><linearGradient id="SVGID_38_" x1="255.084" x2="263.757" y1="187.356" y2="203.272" gradientUnits="userSpaceOnUse"><stop offset="0" style="stop-color:#1a293d" id="stop275"/><stop offset="1" style="stop-color:#0e6847" id="stop277"/></linearGradient><path id="path280" fill="url(#SVGID_38_)" d="m 244.999,202.578 c 0,0 10.25,-2.875 13,-13.25 2.25,1 7.75,-1.125 10.75,-10.625 -3,8.125 -4.625,11.875 -10.125,12 -1.5,5.75 -7,11 -13.625,11.875 z" opacity=".19" i:knockout="Off" style="fill:url(#SVGID_38_)"/><linearGradient id="SVGID_39_" x1="225.568" x2="232.99" y1="192.129" y2="205.748" gradientUnits="userSpaceOnUse"><stop offset="0" style="stop-color:#1a293d" id="stop282"/><stop offset="1" style="stop-color:#0e6847" id="stop284"/></linearGradient><path id="path287" fill="url(#SVGID_39_)" d="m 228.124,189.703 c 0,0 -2.375,9 -1.625,11.25" opacity=".19" i:knockout="Off" style="fill:url(#SVGID_39_)"/><linearGradient id="SVGID_40_" x1="235.532" x2="241.245" y1="195.24" y2="205.724" gradientUnits="userSpaceOnUse"><stop offset="0" style="stop-color:#1a293d" id="stop289"/><stop offset="1" style="stop-color:#0e6847" id="stop291"/></linearGradient><path id="path294" fill="url(#SVGID_40_)" d="m 238.499,192.828 c -0.375,0.5 -3.875,7.25 -3.25,9.75" opacity=".19" i:knockout="Off" style="fill:url(#SVGID_40_)"/><linearGradient id="SVGID_41_" x1="240.715" x2="242.458" y1="197.326" y2="200.525" gradientUnits="userSpaceOnUse"><stop offset="0" style="stop-color:#1a293d" id="stop296"/><stop offset="1" style="stop-color:#0e6847" id="stop298"/></linearGradient><path id="path301" fill="url(#SVGID_41_)" d="m 243.249,195.703 c 0,0 -1.5,2.875 -4.25,4.75" opacity=".19" i:knockout="Off" style="fill:url(#SVGID_41_)"/><linearGradient id="SVGID_42_" x1="241.607" x2="250.126" y1="184.634" y2="200.268" gradientUnits="userSpaceOnUse"><stop offset="0" style="stop-color:#1a293d" id="stop303"/><stop offset="1" style="stop-color:#0e6847" id="stop305"/></linearGradient><path id="path308" fill="url(#SVGID_42_)" d="m 242.749,182.828 c 0,0 0.375,10.5 1.875,10.875" opacity=".19" i:knockout="Off" style="fill:url(#SVGID_42_)"/><linearGradient id="SVGID_43_" x1="230.507" x2="238.652" y1="186.763" y2="201.711" gradientUnits="userSpaceOnUse"><stop offset="0" style="stop-color:#1a293d" id="stop310"/><stop offset="1" style="stop-color:#0e6847" id="stop312"/></linearGradient><path id="path315" fill="url(#SVGID_43_)" d="m 233.124,184.203 c 0,0 -2.375,11.625 -1.375,12.125" opacity=".19" i:knockout="Off" style="fill:url(#SVGID_43_)"/><linearGradient id="SVGID_44_" x1="222.645" x2="230.002" y1="183.781" y2="197.282" gradientUnits="userSpaceOnUse"><stop offset="0" style="stop-color:#1a293d" id="stop317"/><stop offset="1" style="stop-color:#0e6847" id="stop319"/></linearGradient><path id="path322" fill="url(#SVGID_44_)" d="m 225.499,181.203 c 0,0 -2.875,10.375 -2.25,11.5" opacity=".19" i:knockout="Off" style="fill:url(#SVGID_44_)"/><linearGradient id="SVGID_45_" x1="251.375" x2="257.225" y1="183.119" y2="193.855" gradientUnits="userSpaceOnUse"><stop offset="0" style="stop-color:#1a293d" id="stop324"/><stop offset="1" style="stop-color:#0e6847" id="stop326"/></linearGradient><path id="path329" fill="url(#SVGID_45_)" d="m 252.249,181.828 c 0,0 1.625,5.625 1,7.625" opacity=".19" i:knockout="Off" style="fill:url(#SVGID_45_)"/><linearGradient id="SVGID_46_" x1="249.017" x2="264.775" y1="192.395" y2="221.315" gradientUnits="userSpaceOnUse"><stop offset="0" style="stop-color:#1a293d" id="stop331"/><stop offset="1" style="stop-color:#0e6847" id="stop333"/></linearGradient><path id="path336" fill="url(#SVGID_46_)" d="m 272.874,177.203 c 0,0 -6.5,23.125 -40.5,43.625 8.625,-2.5 38,-24.125 40.5,-43.625 z" opacity=".19" i:knockout="Off" style="fill:url(#SVGID_46_)"/><linearGradient id="SVGID_47_" x1="298.224" x2="299.224" y1="163.444" y2="182.11" gradientUnits="userSpaceOnUse"><stop offset="0" style="stop-color:#d31b22" id="stop338"/><stop offset="1" style="stop-color:#ec6912" id="stop340"/></linearGradient><path id="path343" fill="url(#SVGID_47_)" d="m 300.666,159.411 c 0,0 -8.5,7.833 -8.833,16 -0.333,8.167 9.833,-5.5 11.5,-10.833 C 305,159.245 305,157.911 305,157.911" style="fill:url(#SVGID_47_)"/><linearGradient id="SVGID_48_" x1="298.263" x2="301.301" y1="167.042" y2="151.651" gradientUnits="userSpaceOnUse"><stop offset="0" style="stop-color:#d31b22" id="stop345"/><stop offset="1" style="stop-color:#ec6912" id="stop347"/></linearGradient><path id="path350" fill="url(#SVGID_48_)" d="m 314.374,150.578 c -1.875,-0.625 -4.875,1.25 -4.75,3.375 0.125,2.125 -4.625,1.375 -7.75,-2.375 -3.125,-3.75 -6.75,-5.25 -9.75,-3.625 -3,1.625 -5.125,3.25 -5.375,1.875 -0.125,1.625 1.875,0.25 1.875,1.25 0,1 0.125,10 7.5,9.125 4.375,-0.375 7.125,-0.75 5.25,1.75 -1.875,2.5 -2.625,9.5 0.625,9.75 3.25,0.25 7.25,-1.25 7.25,-1.25 0,0 -6,-8.375 -4.375,-10.125 1.625,-1.75 6.25,-3.75 10,-3 0.75,-1.125 1.375,-6.125 -0.5,-6.75 z" style="fill:url(#SVGID_48_)"/><linearGradient id="SVGID_49_" x1="296.636" x2="307.282" y1="164.417" y2="183.954" gradientUnits="userSpaceOnUse"><stop offset="0" style="stop-color:#1a293d" id="stop352"/><stop offset="1" style="stop-color:#0e6847" id="stop354"/></linearGradient><path id="path357" fill="url(#SVGID_49_)" d="m 302.749,160.203 c 0,0 -4.375,6.625 -1.375,10.375 1.75,1.625 4.5,0.5 4.5,0.5 0,0 -1.625,5.625 -11.5,4.625 0.75,-3.75 2.375,-4.75 2.375,-4.75 0,0 5.375,-9 4.375,-10.375 0.5,-0.625 1.125,-0.125 1.125,-0.125" style="fill:url(#SVGID_49_)"/><linearGradient id="SVGID_50_" x1="294.325" x2="297.906" y1="151.7" y2="158.272" gradientUnits="userSpaceOnUse"><stop offset="0" style="stop-color:#1a293d" id="stop359"/><stop offset="1" style="stop-color:#0e6847" id="stop361"/></linearGradient><ellipse id="ellipse364" cx="295.166" cy="153.244" fill="url(#SVGID_50_)" rx="2" ry="2.25" style="fill:url(#SVGID_50_)"/><linearGradient id="SVGID_51_" x1="296.918" x2="292.334" y1="149.064" y2="159.648" gradientUnits="userSpaceOnUse"><stop offset="0" style="stop-color:#fff" id="stop366"/><stop offset="1" style="stop-color:#ee3f3e" id="stop368"/></linearGradient><path id="path371" fill="url(#SVGID_51_)" d="m 290.333,150.744 c 0,0 4.417,-4 7.167,-0.75 2.75,3.25 3.417,3.25 3.417,3.25 0,0 -1.333,4.834 -5.583,4.417 -4.25,-0.417 -4.917,-4 -4.583,-6.25 0.833,-0.25 1,0.333 1,0.333 0,0 -0.333,4.5 3,4.833 3.333,0.333 4.583,-3.083 4.583,-3.083 0,0 -1.917,-3.083 -3.833,-3.75 -1.916,-0.667 -3.585,1.917 -5.168,1 z" style="fill:url(#SVGID_51_)"/><linearGradient id="SVGID_52_" x1="310.042" x2="311.582" y1="159.042" y2="161.869" gradientUnits="userSpaceOnUse"><stop offset="0" style="stop-color:#1a293d" id="stop373"/><stop offset="1" style="stop-color:#0e6847" id="stop375"/></linearGradient><path id="path378" fill="url(#SVGID_52_)" d="m 311.083,160.411 c 0,0 -0.25,-1.833 -1.5,-1.333" style="fill:url(#SVGID_52_)"/><g id="g382" opacity=".44"><path id="path380" fill="#ff0" d="m 240.833,155.578 c 0,0 -10,4 -10.167,11.333 -0.167,7.333 3.167,10.833 3.167,10.833 0,0 -7,-12.333 7,-22.166 z"/></g><g id="g386" opacity=".44"><path id="path384" fill="#ff0" d="m 241.833,159.578 c 0,0 -3.167,13.333 7.167,13.333 -8.333,1.5 -9.666,-7 -6.833,-13.833"/></g><g id="g390" opacity=".44"><path id="path388" fill="#ff0" d="m 237.666,167.745 c 0,0 2,13.667 9.833,11 -4.333,2.5 -10.666,-0.667 -9.833,-11 z"/></g><g id="g394" opacity=".44"><path id="path392" fill="#ff0" d="m 225.166,176.245 c 0,0 -3.833,6.166 -3.667,12.833"/></g><g id="g398" opacity=".44"><path id="path396" fill="#ff0" d="m 230.499,182.245 c 0,0 -1.667,7.667 -0.167,12.667"/></g><g id="g402" opacity=".44"><path id="path400" fill="#ff0" d="m 224.499,208.078 c 0,0 -19.167,23.334 -22.667,23.834"/></g><g id="g406" opacity=".44"><path id="path404" fill="#ff0" d="m 225.749,246.828 c 0,0 -2.5,25.5 2,25.5"/></g><g id="g410" opacity=".44"><path id="path408" fill="#ff0" d="m 232.249,247.328 c 0,0 -3.5,32.5 -1,32.5"/></g><g id="g414" opacity=".44"><path id="path412" fill="#ff0" d="m 241.999,241.578 c 0,0 0.75,12.25 -3.25,13.5"/></g><g id="g423" opacity=".41"><linearGradient id="SVGID_53_" x1="225.863" x2="247.776" y1="298.306" y2="342.132" gradientUnits="userSpaceOnUse"><stop offset="0" style="stop-color:#6cc20d" id="stop416"/><stop offset="1" style="stop-color:#c0dc31" id="stop418"/></linearGradient><path id="path421" fill="url(#SVGID_53_)" d="m 228.249,277.078 c 0,0 -1,6 1.75,6 -4.25,39.75 -4.25,41.25 -4.25,41.25 l 3,-39.75 c 0,0 -3.5,-4.75 -0.75,-8.25" style="fill:url(#SVGID_53_)"/></g><linearGradient id="SVGID_54_" x1="243.01" x2="219.011" y1="252.347" y2="276.596" gradientUnits="userSpaceOnUse"><stop offset="0" style="stop-color:#6cc20d" id="stop425"/><stop offset="1" style="stop-color:#c0dc31" id="stop427"/></linearGradient><path id="path430" fill="url(#SVGID_54_)" d="m 221.249,261.578 c 0,0 -2.25,23.25 1.5,24" style="fill:url(#SVGID_54_)"/><circle id="circle432" cx="296.904" cy="152.749" r=".839" fill="#fff"/><circle id="circle434" cx="293.926" cy="154.048" r=".352" fill="#fff"/><ellipse id="ellipse436" cx="295.469" cy="157.026" fill="#fff" rx=".92" ry=".352"/><linearGradient id="SVGID_55_" x1="263.413" x2="273.08" y1="158.404" y2="174.404" gradientUnits="userSpaceOnUse"><stop offset="0" style="stop-color:#d31b22" id="stop438"/><stop offset="1" style="stop-color:#ec6912" id="stop440"/></linearGradient><path id="path443" fill="url(#SVGID_55_)" d="m 270.499,172.911 c 0,0 -1.833,-13 -11.333,-14.833 8.667,0 15.166,5.667 11.333,14.833 z" style="fill:url(#SVGID_55_)"/><linearGradient id="SVGID_56_" x1="214.997" x2="220.294" y1="200.794" y2="209.561" gradientUnits="userSpaceOnUse"><stop offset="0" style="stop-color:#d31b22" id="stop445"/><stop offset="1" style="stop-color:#ec6912" id="stop447"/></linearGradient><path id="path450" fill="url(#SVGID_56_)" d="m 222.249,194.828 c 0,0 -10.75,9.25 -10.75,18.375 11.75,-15.375 11.75,-15.375 11.75,-15.375 0,0 -0.125,-2.5 -1,-3 z" style="fill:url(#SVGID_56_)"/><g id="g466"><linearGradient id="SVGID_57_" x1="234.997" x2="246.714" y1="227.312" y2="227.312" gradientUnits="userSpaceOnUse"><stop offset=".495" style="stop-color:#d8a274" id="stop452"/><stop offset=".884" style="stop-color:#dabea8" id="stop454"/></linearGradient><path id="path457" fill="url(#SVGID_57_)" d="m 234.999,225.558 c 0,0 3.225,-2.775 5.067,1.189 1.843,3.963 1.075,6.605 -0.153,7.664 3.225,-0.926 4.3,-6.079 3.225,-9.91 2.457,1.983 2.458,5.285 1.382,7.134 3.225,-1.188 2.61,-8.059 0,-9.909 -2.611,-1.848 -9.675,-3.303 -9.521,3.832 z" style="fill:url(#SVGID_57_)"/><linearGradient id="SVGID_58_" x1="240.066" x2="248.978" y1="222.155" y2="238.508" gradientUnits="userSpaceOnUse"><stop offset="0" style="stop-color:#1a293d" id="stop459"/><stop offset="1" style="stop-color:#0e6847" id="stop461"/></linearGradient><path id="path464" fill="url(#SVGID_58_)" d="m 246.625,226.013 c -0.038,-0.281 -0.09,-0.559 -0.153,-0.832 -0.459,-0.057 -1.038,0.112 -1.639,0.896 0,0.117 0.843,-0.308 1.792,-0.064 z m -4.126,-3.018 c 0,0 0.683,-0.792 2.399,-0.94 -0.122,-0.118 -0.246,-0.233 -0.378,-0.327 -0.129,-0.092 -0.277,-0.181 -0.427,-0.27 -0.985,0.018 -2.029,0.369 -2.344,0.829 -1.667,-0.875 -3.792,0.833 -4.125,2.167 -0.375,-1.042 0.917,-2.583 2.292,-2.958 -2.879,-0.082 -3.483,3.199 -3.499,3.284 0.638,-0.209 1.411,-0.268 2.155,0.16 1.108,-2.076 3.927,-1.945 3.927,-1.945 z m -1.404,7.078 c 0.043,0.318 0.061,0.619 0.066,0.908 0.88,-0.327 1.5,-0.278 1.886,-0.158 0.126,-0.394 0.229,-0.803 0.306,-1.226 -0.638,-0.276 -1.54,0.074 -2.258,0.476 z m 5.246,-5.409 c -0.101,-0.345 -0.226,-0.671 -0.364,-0.984 -0.493,-0.224 -1.254,-0.277 -2.061,0.773 0,0.141 1.255,-0.52 2.425,0.211 z m -3.092,0.456 c -1.158,-1.097 -2.845,0.076 -3.672,0.787 0.17,0.242 0.336,0.511 0.489,0.841 0.014,0.029 0.024,0.057 0.037,0.085 0.75,-1.375 2.315,-1.783 3.146,-1.713 z m 2.167,2.916 c 0,0.095 0.553,-0.167 1.268,-0.141 0.019,-0.247 0.026,-0.496 0.023,-0.749 -0.39,0.056 -0.832,0.292 -1.291,0.89 z m -4.876,-0.134 c 0.141,0.389 0.256,0.763 0.347,1.121 0.949,-1.072 1.986,-1.053 2.635,-0.878 0.019,-0.362 0.019,-0.728 0.004,-1.092 -0.989,-0.518 -2.258,0.273 -2.986,0.849 z" opacity=".19" i:knockout="Off" style="fill:url(#SVGID_58_)"/></g><g id="g482"><linearGradient id="SVGID_59_" x1="255.348" x2="266.447" y1="220.395" y2="220.395" gradientUnits="userSpaceOnUse"><stop offset=".495" style="stop-color:#d8a274" id="stop468"/><stop offset=".884" style="stop-color:#dabea8" id="stop470"/></linearGradient><path id="path473" fill="url(#SVGID_59_)" d="m 255.35,218.734 c 0,0 3.055,-2.628 4.8,1.126 1.746,3.753 1.019,6.257 -0.145,7.26 3.054,-0.877 4.073,-5.758 3.054,-9.387 2.327,1.878 2.328,5.005 1.31,6.758 3.054,-1.126 2.472,-7.633 0,-9.386 -2.473,-1.751 -9.164,-3.129 -9.019,3.629 z" style="fill:url(#SVGID_59_)"/><linearGradient id="SVGID_60_" x1="260.15" x2="268.59" y1="215.51" y2="231" gradientUnits="userSpaceOnUse"><stop offset="0" style="stop-color:#1a293d" id="stop475"/><stop offset="1" style="stop-color:#0e6847" id="stop477"/></linearGradient><path id="path480" fill="url(#SVGID_60_)" d="m 266.362,219.166 c -0.036,-0.267 -0.085,-0.529 -0.145,-0.788 -0.435,-0.054 -0.982,0.106 -1.552,0.849 0,0.109 0.799,-0.293 1.697,-0.061 z m -3.908,-2.86 c 0,0 0.646,-0.75 2.272,-0.891 -0.116,-0.112 -0.233,-0.221 -0.358,-0.31 -0.123,-0.087 -0.263,-0.171 -0.404,-0.255 -0.933,0.017 -1.922,0.349 -2.221,0.785 -1.579,-0.829 -3.591,0.789 -3.907,2.052 -0.355,-0.987 0.868,-2.446 2.171,-2.802 -2.727,-0.078 -3.3,3.03 -3.314,3.111 0.604,-0.198 1.336,-0.254 2.041,0.152 1.05,-1.965 3.72,-1.842 3.72,-1.842 z m -1.329,6.704 c 0.041,0.302 0.058,0.586 0.063,0.86 0.834,-0.31 1.421,-0.264 1.786,-0.15 0.119,-0.373 0.216,-0.76 0.29,-1.161 -0.605,-0.261 -1.46,0.071 -2.139,0.451 z m 4.968,-5.123 c -0.096,-0.327 -0.214,-0.636 -0.345,-0.933 -0.467,-0.212 -1.188,-0.263 -1.952,0.732 0,0.135 1.189,-0.491 2.297,0.201 z m -2.928,0.432 c -1.097,-1.039 -2.695,0.072 -3.478,0.746 0.161,0.229 0.318,0.484 0.463,0.796 0.013,0.028 0.023,0.054 0.035,0.081 0.71,-1.303 2.193,-1.689 2.98,-1.623 z m 2.052,2.762 c 0,0.089 0.524,-0.158 1.201,-0.133 0.018,-0.234 0.024,-0.47 0.021,-0.709 -0.368,0.052 -0.788,0.276 -1.222,0.842 z m -4.619,-0.127 c 0.134,0.368 0.243,0.723 0.329,1.062 0.899,-1.016 1.881,-0.997 2.496,-0.832 0.018,-0.343 0.018,-0.689 0.004,-1.034 -0.937,-0.491 -2.139,0.259 -2.829,0.804 z" opacity=".19" i:knockout="Off" style="fill:url(#SVGID_60_)"/></g><g id="g492"><g id="g486" opacity=".44"><path id="path484" fill="#ff0" d="m 289.365,181.428 c 0,0 1.025,2.222 -1.709,3.589"/></g><g id="g490" opacity=".44"><path id="path488" fill="#ff0" d="m 286.973,187.581 c 0,0 -0.342,3.589 -2.563,3.76"/></g></g><g id="g502"><g id="g496" opacity=".44"><path id="path494" fill="#ff0" d="m 287.485,175.789 c 0,0 1.025,2.222 -1.709,3.589"/></g><g id="g500" opacity=".44"><path id="path498" fill="#ff0" d="m 285.093,181.941 c 0,0 -0.342,3.589 -2.563,3.76"/></g></g><g id="g512"><g id="g506" opacity=".44"><path id="path504" fill="#ff0" d="m 282.017,188.606 c 0,0 1.025,2.222 -1.709,3.589"/></g><g id="g510" opacity=".44"><path id="path508" fill="#ff0" d="m 279.624,194.758 c 0,0 -0.342,3.589 -2.563,3.76"/></g></g><g id="g522"><g id="g516" opacity=".44"><path id="path514" fill="#ff0" d="m 276.355,195.35 c 0,0 0.431,2.409 -2.56,3.041"/></g><g id="g520" opacity=".44"><path id="path518" fill="#ff0" d="m 272.486,200.699 c 0,0 -1.237,3.386 -3.43,2.99"/></g></g><g id="g532"><g id="g526" opacity=".44"><path id="path524" fill="#ff0" d="m 279.348,185.275 c 0,0 0.556,1.774 -1.637,2.537"/></g><g id="g530" opacity=".44"><path id="path528" fill="#ff0" d="m 276.946,189.677 c 0,0 -0.608,2.67 -2.298,2.582"/></g></g><g id="g542"><g id="g536" opacity=".44"><path id="path534" fill="#ff0" d="m 266.873,204.757 c 0,0 0.556,1.774 -1.637,2.537"/></g><g id="g540" opacity=".44"><path id="path538" fill="#ff0" d="m 264.471,209.159 c 0,0 -0.608,2.67 -2.298,2.582"/></g></g><g id="g552"><g id="g546" opacity=".44"><path id="path544" fill="#ff0" d="m 284.646,174.851 c 0,0 0.556,1.774 -1.637,2.537"/></g><g id="g550" opacity=".44"><path id="path548" fill="#ff0" d="m 282.244,179.252 c 0,0 -0.608,2.67 -2.298,2.582"/></g></g><g id="g562"><g id="g556" opacity=".44"><path id="path554" fill="#ff0" d="m 276.195,202 c 0,0 0.219,2.437 -2.816,2.806"/></g><g id="g560" opacity=".44"><path id="path558" fill="#ff0" d="m 271.874,206.99 c 0,0 -1.528,3.265 -3.678,2.679"/></g></g><linearGradient id="SVGID_61_" x1="256.372" x2="253.638" y1="168.518" y2="194.836" gradientUnits="userSpaceOnUse"><stop offset="0" style="stop-color:#03b9ce" id="stop564"/><stop offset="1" style="stop-color:#8bd3e5" id="stop566"/></linearGradient><path id="path569" fill="url(#SVGID_61_)" d="m 263.56,192.708 c 0,0 -8.715,12.475 -21.533,20.507" style="fill:url(#SVGID_61_)"/><g id="g573" opacity=".44"><path id="path571" fill="#ff0" d="m 257.75,161.775 c 0,0 5.126,5.468 5.297,11.621"/></g><g id="g577" opacity=".44"><path id="path575" fill="#ff0" d="m 266.123,178.01 c 0,0 -1.367,6.665 -3.589,9.058"/></g><g id="g581" opacity=".44"><path id="path579" fill="#ff0" d="m 252.623,195.271 c 0,0 -2.393,4.443 -5.981,5.64"/></g><g id="g585" opacity=".44"><path id="path583" fill="#ff0" d="m 235.533,196.296 c 0,0 -2.222,3.589 -1.709,5.981"/></g><g id="g589" opacity=".44"><path id="path587" fill="#ff0" d="m 224.424,286.188 c 0,0 1.025,-1.367 1.025,0.171 0,1.538 -1.025,33.325 -1.025,33.325"/></g></g></g></switch></svg>